<?xml version="1.0" encoding="utf-8"?>
<!-- Generator: Adobe Illustrator 23.0.6, SVG Export Plug-In . SVG Version: 6.00 Build 0)  -->
<svg version="1.1" id="Layer_1" xmlns="http://www.w3.org/2000/svg" xmlns:xlink="http://www.w3.org/1999/xlink" x="0px" y="0px"
	 viewBox="0 0 500 500" style="enable-background:new 0 0 500 500;" xml:space="preserve">
<style type="text/css">
	.st0{fill:none;stroke:#000000;stroke-width:4;stroke-miterlimit:10;}
</style>
<line class="st0" x1="128.1" y1="339" x2="128.1" y2="102.5"/>
<line class="st0" x1="445.9" y1="354.9" x2="143.4" y2="354.9"/>
<line class="st0" x1="461" y1="102.5" x2="461" y2="339"/>
<path class="st0" d="M128.1,339c0,8.8,6.8,15.8,15.3,15.8"/>
<path class="st0" d="M445.9,354.9c8.1,0,14.7-7.1,14.7-15.8"/>
<path class="st0" d="M461,102.5c-92-92-241-92-332.9,0"/>
<rect x="131.9" y="301.1" class="st0" width="7.7" height="22.3"/>
<rect x="449.5" y="301.1" class="st0" width="7.7" height="22.3"/>
<rect x="141.3" y="84.7" transform="matrix(0.6428 0.766 -0.766 0.6428 125.3103 -76.9613)" class="st0" width="7.7" height="22.3"/>
<rect x="440.4" y="86.6" transform="matrix(0.6428 -0.766 0.766 0.6428 83.7931 375.2072)" class="st0" width="7.7" height="22.3"/>
<path class="st0" d="M179.6,354.9c3.4,11.2,1.6,18.8,0,23.1c-9.4,24.6-52.9,34.7-73.7,20.1c-4-2.8-13.9-11.1-14.6-73.7
	c-0.4-33.4,2.1-69.4,11.1-129.4c3.7-24.6,7.3-44.9,9.9-58.7"/>
<path class="st0" d="M196.7,354.9c1.4,5,2.9,13.6,0,23.1c-5.7,18.3-23.9,26.1-32.2,29.6c-16.3,6.9-45.1,11.9-65.1-2.6
	C77,388.8,77,356.5,77.1,302.6c0.1-27.8,2.8-49.1,7.3-82.7c4.7-35.4,9.9-64.4,13.7-84.4"/>
<path class="st0" d="M213.9,354.9c1.1,5.1,2.2,13.5,0,23.1c-4.5,19.7-19.5,30.5-25.3,34.7c-20.6,14.8-51.4,20-77.6,8.1
	c-28-12.7-38.7-39.5-43.7-52.3c-11.7-29.6-8.4-54.3,0.4-112.3c8-52.6,14.8-94.7,19.3-121.7"/>
<path class="st0" d="M231.1,354.9c1.1,5.1,2.2,13.5,0,23.1c-3.8,16.8-15.1,26.8-22.4,33c-23.7,20.3-51.9,22.1-60.4,22.3
	c-6.6,0.2-41.4,0.4-67.7-23.1c-39.2-35-32.9-98.7-29.1-137.6c1.4-14.7,5.7-35.8,14.1-78c5-25.1,9.6-45.8,12.9-60"/>
<path class="st0" d="M248.3,354.9c1.1,5.4,2,13.6,0,23.1c-4.2,19.6-18.3,31.2-27.1,38.1c-35.2,28-79.4,23.7-84,23.1
	c-9.7-1.1-53.1-7.2-79.3-43.7c-16.3-22.7-17.7-45.8-19.7-78.9c-1.9-30.7,2.1-53.4,8.1-87.4c4.3-23.8,11.2-56.2,23.1-94.3"/>
<path class="st0" d="M265.4,354.9c1.1,5.6,1.9,13.8,0,23.1c-5.7,28.4-31.6,43.7-44.7,51.4c-34.5,20.4-69.1,18.1-75.9,17.6
	c-41.5-3.4-84.7-27.6-104.6-66.4c-12.5-24.5-10.9-51.2-7.7-104.6c2-33.3,7.5-61.3,11.1-79.3c5.2-25.7,11-47.3,15.9-63.4"/>
<path class="st0" d="M282.6,354.9c1,5.4,1.9,13.6,0,23.1c-4.1,20.5-18.3,32.9-28.5,41.6c-5.4,4.6-24.2,19.7-57,27.9
	c-19.3,4.8-60.1,14.9-103.7-6.4c-8.1-4-47.6-24.3-64.3-67.7c-6.9-17.9-5.9-41.5-3.9-88.7c0.8-18.4,2-44.1,7.7-78
	c4.8-28.5,11.2-53.3,17.6-73.7"/>
<path class="st0" d="M299.8,354.9c1,5.4,1.8,13.6,0,23.1c-5.5,29.1-30.9,45.7-46.9,56.1c-31.8,20.7-63.9,25.2-81.4,26.1
	c-14.3,0.8-50.5,2.3-88.3-19.3c-12.1-6.9-40.1-23.4-55.7-56.6c-8.4-17.9-9.3-34-10.7-65.6c-0.4-9.3-1.7-45.5,6.9-102
	c3.3-21.9,8.8-50.8,18-84.4"/>
</svg>
