<?xml version="1.0" encoding="utf-8"?>
<!-- Generator: Adobe Illustrator 23.0.6, SVG Export Plug-In . SVG Version: 6.00 Build 0)  -->
<svg version="1.1" id="Layer_1" xmlns="http://www.w3.org/2000/svg" xmlns:xlink="http://www.w3.org/1999/xlink" x="0px" y="0px"
	 viewBox="0 0 500 500" style="enable-background:new 0 0 500 500;" xml:space="preserve">
<style type="text/css">
	.st0{fill:none;stroke:#000000;stroke-width:4;stroke-miterlimit:10;}
	.st1{fill:#FFFF00;}
</style>
<path class="st0" d="M485.7,495.8H16c-5.6,0-10.1-4.5-10.1-10.1V16c0-5.6,4.5-10.1,10.1-10.1h469.8c5.6,0,10.1,4.5,10.1,10.1v469.8
	C495.8,491.3,491.3,495.8,485.7,495.8z"/>
<circle class="st0" cx="250" cy="250" r="199.8"/>
<path class="st0" d="M-472.9-11.3"/>
<path class="st0" d="M40.4,250.8c0,115.9,93.8,209.6,209.6,209.6"/>
<path class="st0" d="M249.9,460.5c115.5,0,208.9-93.4,208.9-208.9"/>
<ellipse transform="matrix(0.1602 -0.9871 0.9871 0.1602 -38.4704 457.9625)" class="st1" cx="249.9" cy="251.6" rx="25.2" ry="25.2"/>
</svg>
