<?xml version="1.0" encoding="utf-8"?>
<!-- Generator: Adobe Illustrator 25.1.0, SVG Export Plug-In . SVG Version: 6.00 Build 0)  -->
<svg version="1.1" id="Layer_1" xmlns="http://www.w3.org/2000/svg" xmlns:xlink="http://www.w3.org/1999/xlink" x="0px" y="0px"
	 viewBox="0 0 500 500" style="enable-background:new 0 0 500 500;" xml:space="preserve">
<style type="text/css">
	.st0{fill:none;stroke:#000000;stroke-miterlimit:10;}
</style>
<g>
	<path d="M35.5,300.3c1.5-7.4,3.1-14.9,4.4-22H60c-0.3,1.9-0.8,6-1.5,9.1c5.1-6.3,11-10.6,21.8-10.6c11.1,0,16.3,4.9,17.8,12.6
		c5.5-6.8,13.2-12.6,25.5-12.6c13.3,0,23.3,7.5,18.8,28.8l-10.8,50.9h-20l10.3-48.3c1.5-7.1,1.2-14.3-8.5-14.3
		c-9.4,0-13.6,6.8-16.1,18.6l-9.3,44H67.6l10.3-48.7c1.6-7.5,0.3-13.8-8.4-13.8c-9.2,0-13.9,6.4-16.6,19.6l-9,42.9H23.6L35.5,300.3z
		"/>
	<path d="M170.8,322.1c-0.3,1.7-0.5,3-0.5,4.7c0,8.3,3.1,15.4,12.4,15.4c8.4,0,12-4.5,14.6-9.5h21.4c-4.4,11.6-14.4,25.3-37.7,25.3
		c-21.1,0-31.3-13.2-31.3-32.1c0-20.6,11.3-49.1,42.4-49.1c23,0,31.1,14.1,31.1,30.1c0,6.3-0.8,10.8-2.1,15.2L170.8,322.1
		L170.8,322.1z M203.2,308.4c0.3-1.5,0.3-2.6,0.3-3.5c0-6.9-3-12.7-12.1-12.7c-9.4,0-15.2,6-17.9,16.1L203.2,308.4L203.2,308.4z"/>
	<path d="M234.8,301.5c1.6-7.7,3.2-16,4.5-23.2h19.8c-0.1,2-0.9,7.8-2.2,14.2c5.3-9.4,12.4-15.7,26-15.7l-4.2,20.6
		c-14.3,0.2-24.3,8-28,25.1l-7.2,34h-20.5L234.8,301.5z"/>
	<path d="M290.9,279.1L290.9,279.1l4.6-21.1h20.4l-4.4,21.1h14.7l-3.5,15.7h-14.7l-8.2,39.4c-1,4.9-0.6,8.1,5.6,8.1
		c2.4,0,4.4-0.1,6.7-0.5l-3.1,14.9c-4.6,1.5-9.6,1.5-13.9,1.5c-16.3,0-18.8-9.3-16-23l8.4-40.3l0,0L290.9,279.1z"/>
	<path d="M343.2,322.8c-0.3,1.7-0.5,3-0.5,4.7c0,8.3,3.1,15.4,12.4,15.4c8.4,0,12-4.5,14.6-9.5h21.4c-4.4,11.6-14.4,25.3-37.7,25.3
		c-21,0-31.3-13.2-31.3-32.1c0-20.6,11.3-49.1,42.4-49.1c23,0,31.1,14.1,31.1,30.1c0,6.3-0.8,10.8-2.1,15.2L343.2,322.8L343.2,322.8
		z M375.5,309.1c0.3-1.5,0.3-2.6,0.3-3.5c0-6.9-3-12.7-12.1-12.7c-9.4,0-15.2,6-17.9,16.1L375.5,309.1L375.5,309.1z"/>
	<path d="M407.8,298.9c1.4-6.6,2.8-13.3,3.9-19.9h20.1c-0.2,2.2-1.1,7.8-1.5,9.8c3.6-4.7,10.5-11.3,23.6-11.3
		c15.4,0,24.2,9.3,19.3,32.4l-10,47.3h-20.4l10-47.5c1.9-8.8,0-15.1-8.8-15.1c-10,0-16.3,7.6-19.4,22.1l-8.5,40.5h-20.5L407.8,298.9
		z"/>
</g>
<line class="st0" x1="23.6" y1="243.3" x2="474.6" y2="243.3"/>
<g>
	<path d="M70.4,156.1v12.2c-8.3-3.7-14.9-5.6-19.8-5.6c-2.8,0-5,0.5-6.7,1.4s-2.5,2.2-2.5,3.7c0,1.2,0.6,2.3,1.8,3.4
		c1.2,1.1,4.1,2.5,8.7,4.2s8.3,3.3,11.1,4.7c2.8,1.5,5.2,3.5,7.2,6.2c2,2.7,3,6,3,10.1c0,5.8-2.2,10.4-6.6,13.8s-10.2,5.1-17.4,5.1
		c-7.8,0-15.3-2-22.5-6v-13.5c4.2,2.8,7.9,4.9,11.1,6.1c3.2,1.3,6.6,1.9,10.2,1.9c6.1,0,9.2-1.9,9.2-5.8c0-1.3-0.6-2.5-1.8-3.7
		c-1.2-1.2-4.2-2.6-8.8-4.2s-8.4-3.2-11.1-4.6s-5.1-3.5-7.1-6.1c-2-2.7-3-6.1-3-10.2c0-5.4,2.2-9.7,6.5-13c4.3-3.3,10.1-5,17.4-5
		C56,151.3,63,152.9,70.4,156.1z"/>
	<path d="M121.8,201.6v10.7c-5.8,2.1-11.2,3.2-16.1,3.2c-8.4,0-15-2.2-20-6.7c-5-4.5-7.5-10.4-7.5-17.8c0-7.2,2.5-13.2,7.6-17.9
		c5.1-4.7,11.5-7,19.3-7c5,0,10.4,1,16,3.1v11.1c-4.1-2.1-8.2-3.2-12.2-3.2c-4.5,0-8,1.2-10.7,3.7c-2.7,2.5-4,5.8-4,10
		c0,4.2,1.3,7.6,3.9,10.2s6.1,3.9,10.3,3.9C111.6,204.9,116,203.8,121.8,201.6z"/>
	<path d="M144.4,151.3v22.7h0.2c4.2-5.3,9.2-8,15.1-8c5.1,0,9.2,1.6,12.5,4.8c3.3,3.2,4.9,7.7,4.9,13.4v30.3h-14.9v-27.2
		c0-6.9-2.6-10.4-7.7-10.4c-3.4,0-6.7,2.4-10,7.2v30.3h-14.9v-63.3L144.4,151.3L144.4,151.3z"/>
	<path d="M201.7,167.1v6.7c4.4-5.2,9.6-7.8,15.4-7.8c4.9,0,9.1,1.6,12.4,4.7s5,7.7,5,13.5v30.2h-14.9v-29c0-6.4-2.5-9.5-7.4-9.5
		c-3.5,0-7,2.6-10.4,7.9v30.6h-14.9v-47.5L201.7,167.1L201.7,167.1z"/>
	<path d="M290.7,199.9v9.4c-5.7,4.2-12.8,6.2-21.2,6.2c-8.4,0-15-2.2-20-6.7s-7.5-10.4-7.5-17.8c0-7.3,2.4-13.2,7.1-17.9
		s10.7-7,18-7c7.3,0,13.3,2.5,18,7.4c4.7,4.9,6.9,11.5,6.6,19.8h-34.1c0.3,4.3,1.8,7.6,4.6,10s6.4,3.5,11.1,3.5
		C278.6,206.7,284.5,204.4,290.7,199.9z M257.7,185.4h20.6c-0.8-6.9-4.2-10.4-10.3-10.4C261.9,175,258.4,178.5,257.7,185.4z"/>
	<path d="M300.3,157.1c0-1.7,0.6-3.1,1.8-4.3s2.6-1.8,4.3-1.8c1.7,0,3.1,0.6,4.3,1.8s1.8,2.6,1.8,4.3c0,1.7-0.6,3.1-1.8,4.3
		s-2.6,1.8-4.3,1.8c-1.7,0-3.1-0.6-4.3-1.8C300.9,160.2,300.3,158.8,300.3,157.1z M313.9,167.1v47.5h-15v-47.5H313.9z"/>
	<path d="M371.8,151.3v63.3h-15v-3.8c-3.8,3.1-8.2,4.7-13.2,4.7c-6.3,0-11.6-2.4-15.9-7c-4.2-4.7-6.4-10.6-6.4-17.7
		c0-7.3,2.2-13.2,6.5-17.8c4.3-4.6,9.8-6.9,16.6-6.9c4.2,0,8.3,1,12.4,3v-17.8L371.8,151.3L371.8,151.3z M356.8,201.6v-22.7
		c-2.7-1.8-5.5-2.8-8.4-2.8c-3.8,0-6.7,1.3-8.8,3.9s-3.1,6.3-3.1,11c0,4.4,1,7.9,3.1,10.5s4.9,4,8.3,4
		C351,205.5,354,204.2,356.8,201.6z"/>
	<path d="M427.8,199.9v9.4c-5.7,4.2-12.8,6.2-21.2,6.2c-8.4,0-15-2.2-20-6.7c-5-4.5-7.5-10.4-7.5-17.8c0-7.3,2.4-13.2,7-17.9
		c4.7-4.7,10.7-7,18-7c7.3,0,13.3,2.5,18,7.4c4.7,4.9,6.9,11.5,6.6,19.8h-34.1c0.3,4.3,1.8,7.6,4.6,10s6.4,3.5,11.1,3.5
		C415.8,206.7,421.7,204.4,427.8,199.9z M394.9,185.4h20.6c-0.8-6.9-4.2-10.4-10.3-10.4C399,175,395.6,178.5,394.9,185.4z"/>
	<path d="M451.1,167.1v13.6h0.2c4.3-9.7,9.4-14.6,15.1-14.6c2.8,0,6.1,1.4,9.9,4.3l-4.1,13.2c-3.7-2.4-6.6-3.5-8.9-3.5
		c-3.5,0-6.4,2.1-8.7,6.4c-2.4,4.3-3.5,6.8-3.5,7.5v20.6h-15v-47.5L451.1,167.1L451.1,167.1z"/>
</g>
</svg>
