<?xml version="1.0" encoding="utf-8"?>
<!-- Generator: Adobe Illustrator 23.0.3, SVG Export Plug-In . SVG Version: 6.00 Build 0)  -->
<svg version="1.1" id="Layer_1" xmlns="http://www.w3.org/2000/svg" xmlns:xlink="http://www.w3.org/1999/xlink" x="0px" y="0px"
	 viewBox="0 0 500 500" style="enable-background:new 0 0 500 500;" xml:space="preserve">
<style type="text/css">
	.st0{stroke:#000000;stroke-miterlimit:10;}
</style>
<g>
	<path d="M34.56,162.57c1.51-7.37,3.14-14.93,4.36-21.96h20.12c-0.28,1.85-0.83,6.04-1.49,9.1c5.08-6.26,10.95-10.61,21.75-10.61
		c11.08,0,16.34,4.93,17.82,12.57c5.54-6.81,13.23-12.57,25.54-12.57c13.29,0,23.3,7.54,18.77,28.79l-10.81,50.95h-20.01
		l10.26-48.35c1.47-7.07,1.17-14.33-8.52-14.33c-9.36,0-13.62,6.76-16.1,18.64l-9.35,44.04H66.65l10.34-48.7
		c1.58-7.49,0.35-13.84-8.37-13.84c-9.17,0-13.9,6.39-16.64,19.63l-9.03,42.91H22.67L34.56,162.57z"/>
	<path d="M169.91,184.38c-0.32,1.67-0.49,2.97-0.49,4.68c0,8.3,3.11,15.44,12.37,15.44c8.36,0,12.01-4.48,14.63-9.49h21.38
		c-4.38,11.56-14.36,25.34-37.74,25.34c-21.05,0-31.32-13.19-31.32-32.11c0-20.62,11.29-49.14,42.4-49.14
		c23.02,0,31.06,14.06,31.06,30.07c0,6.31-0.84,10.82-2.08,15.22H169.91z M202.24,170.68c0.32-1.47,0.34-2.56,0.34-3.49
		c0-6.86-3-12.66-12.07-12.66c-9.42,0-15.18,6.04-17.87,16.15H202.24z"/>
	<path d="M233.92,163.78c1.64-7.67,3.17-15.95,4.52-23.17h19.84c-0.15,1.96-0.86,7.82-2.24,14.21c5.34-9.39,12.42-15.72,26.04-15.72
		l-4.21,20.63c-14.28,0.2-24.32,8.03-27.95,25.12l-7.19,33.99h-20.54L233.92,163.78z"/>
	<path d="M289.99,141.36L289.99,141.36l4.57-21.09h20.41l-4.44,21.09h14.72l-3.51,15.7h-14.72l-8.2,39.38
		c-1.02,4.87-0.58,8.08,5.57,8.08c2.38,0,4.41-0.15,6.7-0.49l-3.13,14.88c-4.6,1.46-9.6,1.48-13.92,1.48
		c-16.27,0-18.83-9.33-15.99-23.02l8.43-40.31l0,0L289.99,141.36z"/>
	<path d="M342.27,185.13c-0.32,1.67-0.49,2.97-0.49,4.68c0,8.3,3.11,15.44,12.37,15.44c8.36,0,12.01-4.48,14.63-9.49h21.38
		c-4.38,11.56-14.36,25.34-37.74,25.34c-21.05,0-31.32-13.19-31.32-32.11c0-20.62,11.29-49.14,42.4-49.14
		c23.02,0,31.06,14.06,31.06,30.07c0,6.31-0.84,10.82-2.08,15.22H342.27z M374.59,171.43c0.32-1.47,0.34-2.56,0.34-3.49
		c0-6.86-3-12.66-12.07-12.66c-9.42,0-15.18,6.04-17.87,16.15H374.59z"/>
	<path d="M406.88,161.23c1.36-6.65,2.84-13.26,3.91-19.86h20.12c-0.17,2.17-1.07,7.83-1.54,9.81c3.64-4.74,10.55-11.32,23.61-11.32
		c15.39,0,24.22,9.32,19.29,32.44l-9.99,47.3h-20.41l9.98-47.48c1.94-8.79-0.02-15.07-8.83-15.07c-10.03,0-16.34,7.6-19.42,22.07
		l-8.52,40.47h-20.54L406.88,161.23z"/>
</g>
<line class="st0" x1="22.67" y1="249.96" x2="473.65" y2="249.96"/>
<g>
	<path d="M67.68,280.82v12.21c-8.29-3.73-14.9-5.59-19.82-5.59c-2.8,0-5.03,0.47-6.69,1.41c-1.66,0.94-2.48,2.19-2.48,3.74
		c0,1.19,0.6,2.33,1.79,3.4c1.19,1.07,4.1,2.46,8.72,4.16c4.62,1.7,8.32,3.28,11.1,4.74c2.77,1.46,5.17,3.52,7.18,6.17
		c2.01,2.66,3.02,6.01,3.02,10.07c0,5.79-2.2,10.4-6.6,13.83c-4.4,3.43-10.19,5.15-17.38,5.15c-7.76,0-15.27-2.01-22.55-6.04v-13.47
		c4.18,2.8,7.87,4.85,11.1,6.13c3.22,1.28,6.64,1.92,10.25,1.92c6.11,0,9.17-1.92,9.17-5.77c0-1.31-0.61-2.55-1.84-3.71
		c-1.22-1.16-4.17-2.58-8.84-4.25s-8.37-3.22-11.1-4.65c-2.73-1.43-5.08-3.48-7.07-6.13c-1.98-2.66-2.97-6.06-2.97-10.2
		c0-5.37,2.16-9.7,6.49-13c4.32-3.3,10.11-4.95,17.36-4.95C53.2,275.99,60.26,277.6,67.68,280.82z"/>
	<path d="M119.06,326.31v10.72c-5.84,2.11-11.19,3.17-16.06,3.17c-8.36,0-15.03-2.24-20.03-6.73c-5-4.48-7.5-10.42-7.5-17.81
		c0-7.22,2.52-13.18,7.58-17.86c5.05-4.69,11.48-7.03,19.3-7.03c5.03,0,10.37,1.04,16.01,3.12v11.12
		c-4.13-2.11-8.19-3.17-12.18-3.17c-4.46,0-8.04,1.24-10.72,3.73c-2.69,2.49-4.03,5.82-4.03,9.98c0,4.2,1.31,7.59,3.93,10.16
		s6.06,3.86,10.32,3.86C108.82,329.58,113.29,328.49,119.06,326.31z"/>
	<path d="M141.65,275.99v22.74h0.2c4.16-5.3,9.18-7.95,15.05-7.95c5.07,0,9.24,1.6,12.51,4.81c3.27,3.21,4.91,7.67,4.91,13.38v30.33
		h-14.95v-27.17c0-6.92-2.57-10.38-7.7-10.38c-3.39,0-6.73,2.4-10.02,7.21v30.34H126.7v-63.31H141.65z"/>
	<path d="M198.97,291.78v6.74c4.4-5.17,9.55-7.75,15.45-7.75c4.93,0,9.05,1.58,12.36,4.74c3.31,3.16,4.96,7.68,4.96,13.55v30.23
		h-14.95v-28.98c0-6.35-2.47-9.53-7.4-9.53c-3.52,0-7,2.62-10.42,7.85v30.65h-14.95v-47.52H198.97z"/>
	<path d="M287.9,324.55v9.41c-5.7,4.16-12.77,6.24-21.19,6.24c-8.36,0-15.03-2.24-20.03-6.73s-7.5-10.42-7.5-17.81
		c0-7.26,2.35-13.22,7.05-17.89c4.7-4.67,10.69-7,17.97-7c7.32,0,13.31,2.46,17.99,7.37c4.68,4.92,6.87,11.5,6.57,19.76h-34.13
		c0.3,4.31,1.83,7.63,4.58,9.95c2.75,2.32,6.44,3.49,11.07,3.49C275.89,331.34,281.76,329.08,287.9,324.55z M254.93,310.05h20.64
		c-0.81-6.91-4.24-10.37-10.32-10.37C259.11,299.68,255.67,303.14,254.93,310.05z"/>
	<path d="M297.56,281.8c0-1.68,0.59-3.11,1.78-4.3c1.19-1.19,2.61-1.78,4.26-1.78c1.68,0,3.11,0.59,4.3,1.78
		c1.19,1.19,1.78,2.62,1.78,4.3c0,1.66-0.59,3.08-1.78,4.28c-1.19,1.2-2.62,1.8-4.3,1.8c-1.66,0-3.08-0.6-4.26-1.8
		C298.15,284.89,297.56,283.46,297.56,281.8z M311.1,291.78v47.52h-14.95v-47.52H311.1z"/>
	<path d="M369.02,275.99v63.31h-14.95v-3.83c-3.83,3.15-8.22,4.73-13.19,4.73c-6.34,0-11.64-2.35-15.88-7.05
		c-4.24-4.7-6.37-10.6-6.37-17.69c0-7.26,2.16-13.18,6.47-17.79c4.31-4.6,9.84-6.9,16.59-6.9c4.19,0,8.32,1.01,12.38,3.02v-17.81
		H369.02z M354.07,326.26v-22.7c-2.72-1.84-5.5-2.77-8.36-2.77c-3.76,0-6.69,1.31-8.78,3.93s-3.15,6.29-3.15,11.02
		c0,4.36,1.04,7.86,3.12,10.49c2.08,2.63,4.85,3.95,8.31,3.95C348.27,330.19,351.22,328.88,354.07,326.26z"/>
	<path d="M425.09,324.55v9.41c-5.7,4.16-12.77,6.24-21.19,6.24c-8.36,0-15.03-2.24-20.03-6.73c-5-4.48-7.5-10.42-7.5-17.81
		c0-7.26,2.35-13.22,7.05-17.89c4.7-4.67,10.69-7,17.97-7c7.32,0,13.31,2.46,17.99,7.37c4.68,4.92,6.87,11.5,6.57,19.76h-34.13
		c0.3,4.31,1.83,7.63,4.58,9.95c2.75,2.32,6.44,3.49,11.07,3.49C413.07,331.34,418.95,329.08,425.09,324.55z M392.12,310.05h20.64
		c-0.81-6.91-4.24-10.37-10.32-10.37C396.29,299.68,392.86,303.14,392.12,310.05z"/>
	<path d="M448.38,291.78v13.59h0.2c4.33-9.73,9.38-14.6,15.15-14.6c2.75,0,6.06,1.44,9.92,4.33l-4.13,13.24
		c-3.69-2.35-6.64-3.52-8.86-3.52c-3.46,0-6.37,2.14-8.73,6.43c-2.37,4.28-3.55,6.78-3.55,7.49v20.57h-14.95v-47.52H448.38z"/>
</g>
</svg>
