<?xml version="1.0" encoding="utf-8"?>
<!-- Generator: Adobe Illustrator 23.0.6, SVG Export Plug-In . SVG Version: 6.00 Build 0)  -->
<svg version="1.1" id="Layer_1" xmlns="http://www.w3.org/2000/svg" xmlns:xlink="http://www.w3.org/1999/xlink" x="0px" y="0px"
	 viewBox="0 0 500 500" style="enable-background:new 0 0 500 500;" xml:space="preserve">
<style type="text/css">
	.st0{fill:none;stroke:#000000;stroke-width:4;stroke-miterlimit:10;}
	.st1{stroke:#000000;stroke-width:4;stroke-miterlimit:10;}
</style>
<line class="st0" x1="144.4" y1="106.9" x2="338.8" y2="106.9"/>
<line class="st0" x1="75.1" y1="349.2" x2="75.1" y2="179.2"/>
<line class="st0" x1="363.6" y1="403.6" x2="119.6" y2="403.6"/>
<line class="st0" x1="408.1" y1="179.1" x2="408.1" y2="349.1"/>
<path class="st0" d="M119.6,403.6c-18-15.2-33.1-33.6-44.5-54.5"/>
<path class="st0" d="M408.1,349.1c-11.3,20.9-26.5,39.4-44.5,54.6"/>
<path class="st0" d="M338.8,106.8c29.1,17.4,53.1,42.4,69.3,72.3"/>
<path class="st0" d="M75.1,179.1c16.2-29.8,40.2-54.8,69.3-72.2"/>
<path class="st0" d="M161.9,200.8"/>
<line class="st0" x1="106.2" y1="221.4" x2="180.2" y2="221.4"/>
<path class="st0" d="M303.7,221.4"/>
<line class="st0" x1="303" y1="221.4" x2="377" y2="221.4"/>
<line class="st0" x1="205.1" y1="221.4" x2="279.1" y2="221.4"/>
<line class="st0" x1="106.2" y1="245.9" x2="180.2" y2="245.9"/>
<path class="st0" d="M304.1,245.9"/>
<line class="st0" x1="303" y1="245.9" x2="377" y2="245.9"/>
<line class="st0" x1="205.1" y1="245.9" x2="279.1" y2="245.9"/>
<line class="st0" x1="106.2" y1="270.2" x2="180.2" y2="270.2"/>
<path class="st0" d="M304.6,270.2"/>
<line class="st0" x1="303" y1="270.2" x2="377" y2="270.2"/>
<line class="st0" x1="205.1" y1="270.2" x2="279.1" y2="270.2"/>
<line class="st0" x1="106.2" y1="294.5" x2="180.2" y2="294.5"/>
<path class="st0" d="M304.6,294.5"/>
<line class="st0" x1="303" y1="294.5" x2="377" y2="294.5"/>
<line class="st0" x1="205.1" y1="294.5" x2="279.1" y2="294.5"/>
<line class="st0" x1="106.2" y1="318.8" x2="180.2" y2="318.8"/>
<path class="st0" d="M305,318.8"/>
<line class="st0" x1="303" y1="318.8" x2="377" y2="318.8"/>
<line class="st0" x1="205.1" y1="318.8" x2="279.1" y2="318.8"/>
<line class="st0" x1="106.2" y1="344.1" x2="180.2" y2="344.1"/>
<path class="st0" d="M305,344.1"/>
<line class="st0" x1="303" y1="344.1" x2="377" y2="344.1"/>
<line class="st0" x1="205.1" y1="344.1" x2="279.1" y2="344.1"/>
<circle class="st1" cx="121.9" cy="192.7" r="13.6"/>
<circle class="st1" cx="134" cy="154.6" r="7.1"/>
<circle class="st0" cx="222.3" cy="378.1" r="13.6"/>
<circle class="st0" cx="180.2" cy="378.1" r="13.6"/>
<circle class="st0" cx="263.6" cy="378.1" r="13.6"/>
<circle class="st0" cx="305.9" cy="378.1" r="13.6"/>
</svg>
